# xmcd CD database file
#
# Track frame offsets:
#	150
#	19608
#	41759
#	68310
#	92516
#	113266
#	131286
#
# Disc length: 2041 seconds
#
# Revision: 0
# Processed by: cddbd v1.5.2PL0 Copyright (c) Steve Scherf et al.
# Submitted via: CDex 1.70beta2
#
DISCID=4207f707
DTITLE=Marianne Racine - Jazz
DYEAR=2009
DGENRE=Jazz
TTITLE0=Marianne Racine - Karsikko Jaervi
TTITLE1=Marianne Racine - Old devil moon
TTITLE2=Marianne Racine - The meaning of the blues
TTITLE3=Marianne Racine - Comes love
TTITLE4=Marianne Racine - The jitterbug waltz
TTITLE5=Marianne Racine - My favourite things
TTITLE6=Marianne Racine - The summer knows
EXTD=YEAR: 2009
EXTT0=
EXTT1=
EXTT2=
EXTT3=
EXTT4=
EXTT5=
EXTT6=
PLAYORDER=
